<svg width="96" height="107" viewBox="0 0 96 107" fill="none" xmlns="http://www.w3.org/2000/svg">
<path d="M40 42C40 40.8954 40.8954 40 42 40H54C55.1046 40 56 40.8954 56 42V65C56 66.1046 55.1046 67 54 67H42C40.8954 67 40 66.1046 40 65V42Z" fill="#349974"/>
<path d="M47.1166 60.2727V47.5455H47.9319V60.2727H47.1166ZM49.667 51.4929C49.614 51.0223 49.3952 50.6577 49.0107 50.3991C48.6263 50.1373 48.1424 50.0064 47.559 50.0064C47.1414 50.0064 46.7802 50.0727 46.4752 50.2053C46.1703 50.3345 45.9333 50.5135 45.7643 50.7422C45.5986 50.9676 45.5157 51.2244 45.5157 51.5128C45.5157 51.7547 45.5721 51.9635 45.6847 52.1392C45.8008 52.3149 45.9516 52.4624 46.1372 52.5817C46.3261 52.6977 46.5283 52.7955 46.7437 52.875C46.9591 52.9512 47.1663 53.0142 47.3651 53.0639L48.3595 53.3224C48.6843 53.402 49.0174 53.5097 49.3588 53.6456C49.7001 53.7815 50.0167 53.9605 50.3083 54.1825C50.6 54.4046 50.8353 54.6797 51.0143 55.0078C51.1966 55.3359 51.2877 55.7287 51.2877 56.1861C51.2877 56.7628 51.1386 57.2749 50.8403 57.7223C50.5453 58.1697 50.1161 58.5227 49.5526 58.7812C48.9925 59.0398 48.3147 59.169 47.5193 59.169C46.757 59.169 46.0974 59.0481 45.5406 58.8061C44.9838 58.5642 44.5479 58.2211 44.233 57.777C43.9182 57.3295 43.7442 56.7992 43.711 56.1861H45.2522C45.282 56.554 45.4014 56.8606 45.6102 57.1058C45.8223 57.3478 46.0924 57.5284 46.4205 57.6477C46.752 57.7637 47.1149 57.8217 47.5093 57.8217C47.9435 57.8217 48.3296 57.7538 48.6677 57.6179C49.0091 57.4787 49.2776 57.2865 49.4731 57.0412C49.6686 56.7926 49.7664 56.5026 49.7664 56.1712C49.7664 55.8696 49.6802 55.6226 49.5079 55.4304C49.3389 55.2382 49.1085 55.0791 48.8169 54.9531C48.5285 54.8272 48.202 54.7161 47.8374 54.62L46.6343 54.2919C45.819 54.0698 45.1727 53.7434 44.6954 53.3125C44.2214 52.8816 43.9845 52.3116 43.9845 51.6023C43.9845 51.0156 44.1436 50.5036 44.4617 50.0661C44.7799 49.6286 45.2108 49.2888 45.7544 49.0469C46.2979 48.8016 46.9111 48.679 47.5938 48.679C48.2832 48.679 48.8914 48.8 49.4184 49.0419C49.9487 49.2839 50.3663 49.617 50.6713 50.0412C50.9762 50.4621 51.1353 50.946 51.1485 51.4929H49.667Z" fill="white"/>
<path d="M42 41H54V39H42V41ZM55 42V65H57V42H55ZM54 66H42V68H54V66ZM41 65V42H39V65H41ZM42 66C41.4477 66 41 65.5523 41 65H39C39 66.6569 40.3431 68 42 68V66ZM55 65C55 65.5523 54.5523 66 54 66V68C55.6569 68 57 66.6569 57 65H55ZM54 41C54.5523 41 55 41.4477 55 42H57C57 40.3431 55.6569 39 54 39V41ZM42 39C40.3431 39 39 40.3431 39 42H41C41 41.4477 41.4477 41 42 41V39Z" fill="white" fill-opacity="0.1"/>
</svg>
